# xmcd CD database file
#
# Track frame offsets:
#	150
#	17746
#	31639
#	46630
#	65128
#	77843
#	92982
#	110912
#	128023
#	154845
#	178419
#	193201
#	207621
#	221516
#	235930
#
# Disc length: 3356 seconds
#
# Revision: 0
# Processed by: cddbd v1.5.2PL0 Copyright (c) Steve Scherf et al.
# Submitted via: CDex 1.51
#
DISCID=da0d1a0f
DTITLE=Firehouse Five plus Two - Dixieland Greatest Hits CD2
DYEAR=2013
DGENRE=Jazz
TTITLE0=When The Saints Go Marching In
TTITLE1=Lonesome Mama Blues
TTITLE2=Wabash Blues
TTITLE3=Muskrat Ramble
TTITLE4=Mississippi Rag
TTITLE5=Royal Garden Blues
TTITLE6=Doctor Jazz
TTITLE7=Let's Have A Party
TTITLE8=Basin Street Blues
TTITLE9=Original Dixieland One-Step
TTITLE10=Swanee River
TTITLE11=I Can't Give You Anything But Love
TTITLE12=I Love You Truly
TTITLE13=Careless Love
TTITLE14=Love Songs Of The Nile
EXTD=YEAR: 2013
EXTT0=
EXTT1=
EXTT2=
EXTT3=
EXTT4=
EXTT5=
EXTT6=
EXTT7=
EXTT8=
EXTT9=
EXTT10=
EXTT11=
EXTT12=
EXTT13=
EXTT14=
PLAYORDER=
